<?xml version="1.0" encoding="UTF-8"?>
<svg id="Layer_1" xmlns="http://www.w3.org/2000/svg" version="1.1" viewBox="0 0 653 156">
  <!-- Generator: Adobe Illustrator 30.2.1, SVG Export Plug-In . SVG Version: 2.1.1 Build 1)  -->
  <defs>
    <style>
      .st0 {
        fill: #0a0a0a;
      }
    </style>
  </defs>
  <path class="st0" d="M5.7,55.1c0-25.4,13.1-35.6,44.9-35.6s26.6,1.8,33.8,2.9l-3.4,16.2c-5.8-1.2-17.5-2.6-28.2-2.6-19.3,0-26.3,5.4-26.2,19.2,0,13.8,6.8,19.7,26.2,19.7s22.4-1.4,28.2-2.6l3.4,16.1c-7.2,1.4-21.4,2.9-33.8,2.9-31.8,0-44.9-10.6-44.9-36Z"/>
  <path class="st0" d="M157.4,78.8c-6.1,8-18.8,11.4-36,11.4s-30.6-7.3-30.6-21,9.7-22.7,37-22.8c12.8-.1,22.2.5,28.9,1-.4-9.2-7-12-23.3-12s-24.7,2.3-35.9,4.3l-3-15.6c12.7-2.3,26.5-4.7,43.1-4.7,29.5,0,38.5,8,38.4,31.6v38.4h-17.4l-1.2-10.6ZM126.3,75.6c15.6,0,29.9-3.8,31.3-15.6-6.4-.5-14.4-1-27-.6-16.1.2-21,4-21,8.6s4.1,7.6,16.7,7.6Z"/>
  <path class="st0" d="M191.1,21h18.6l-.4,18.1c5.3-16,17-22,46-18.1l-1.8,19.1c-27.5-4.4-42.7,1-43.2,22.3v27h-19.2V21Z"/>
  <path class="st0" d="M260.4,55c-.1-23.6,13.6-35.3,41.3-35.3s24.4,4.3,29.4,11.3V0h19.2v89.4h-18.4l-.6-12.1c-3.6,8.5-15.6,13.1-31.4,13.1-25.7,0-39.2-11.6-39.5-35.4ZM305,74c14.3,0,26.4-4.2,26.5-16.2v-6.5c-.1-11.5-12.2-15.7-26.5-15.7s-25.1,5.4-25,19.3c0,13.8,9.8,19.1,25,19.1Z"/>
  <path class="st0" d="M363,85.9l3.4-16.1c11,2.5,25.7,5.2,42.5,5.2s17.8-1.9,17.8-6.2-3.5-5.8-15.6-6l-14.8-.4c-21-.5-32.5-6.2-32.5-20.4s11.4-22.7,38.3-22.7,33.5,3.2,41.8,4.4l-3.4,15.8c-10.1-2-23.4-4.9-40.7-4.9s-18,2.2-18,6.2,4.1,5.6,15.8,6l13.8.5c26.2.8,34.6,8.8,34.6,21s-8.8,22.8-39,22.8-35.3-3.2-43.9-5.3Z"/>
  <path class="st0" d="M484,92.1c-.4,0-.9.1-1.2.2-.7.2-1.3.4-1.9.7-3.8,1.4-5.7,2-5.9,1.8-.2-.2-.3-.7-.4-1.3,0-.2,0-.3,0-.5v-.6c-.8-4.7-3.5-7.3-8.2-7.9-1.4-.2-2.6-.2-3.6,0-1.1.3-2.5.9-4.2,1.9,1-2.1,2.1-5,3.4-8.7s2.5-7.9,3.6-12.5c1.2-4.6,2.1-9.2,2.9-13.8.7-4.6,1-8.7,1-12.4,0-3.7-.8-6.6-2.1-8.6-.6-.9-1.5-1.5-2.6-1.9-1.1-.4-2.3-.4-3.5-.1-1.2.3-2.2,1-2.9,2.1-.9,1-1.6,2.6-2.2,4.8-.6,2.2-1.1,4.5-1.4,6.8-.3,2.4-.5,4.3-.6,6,0,.7,0,1.4,0,2.1-.3,7.1-.5,14.1-.6,21.2,0,4.6,0,9.2,0,13.8-7.5,3.9-14.8,7.1-22,9.4-7.8,2.6-14.7,4.5-20.6,5.6-5.9,1.2-11.7,1.7-17.3,1.6-1,0-1.8-.2-2.4-.5-.6-.3-1.1-.3-1.6,0-.5.2-.4,1,.3,2.2.6,1.2,1.8,2.2,3.4,2.9,1.6.7,3.8.9,6.4.7,17.3-3.1,34-8.4,50.2-16l3.7-1.8c0,1.1,0,2.2.1,3.3,0,1.8.1,3.6.2,5.5,0,1.5,0,3,0,4.6,0,1.6.8,2.3,2.4,2.3h.2c.3,0,.6,0,.9-.1.5-.3.9-.3,1.4-.3.4,0,.9.2,1.3.4,0,0,0,0,.1,0,1.7.7,3.7.8,5.8.3,1.2-.3,2.4-.8,3.5-1.5.8-.5,1.5-1.2,2.2-2.1.6-.8,1.1-1.6,1.5-2.4,0-.1.2-.3.2-.4.5-.9,3.1-2.2,8-4.2.4-.2.8-.3,1.1-.4,3.1-1.3,3.6-2.1,1.6-2.3ZM457.9,80.7c.2-3.1.3-6.9.5-11.6.2-6.1.4-12.4.8-18.7.4-6.3,1-11.3,1.8-15,.6-2.5,1.1-3.9,1.6-4.2.5-.3,1,0,1.4,1.1.4,1.1.7,2.5.8,4.3.4,3.3.3,7.4-.3,12.3-.6,4.9-1.4,9.7-2.3,14.5s-1.9,8.9-2.8,12.2c-.9,3.3-1.4,5-1.6,5.1ZM463,101.8c.1-.3.3-.6.6-.9.6-.5,1.2-.9,1.8-1.3.6-.3,1.4-.5,2.1-.5,0,0,0,0,.2,0,0,0,0,0,0,.1,0,.6-.2,1.1-.7,1.6-.5.5-1.2.9-1.9,1.3-.7.3-1.3.5-1.7.4-.4,0-.6-.3-.4-.9ZM459.7,98.8c0-.2,0-.4,0-.7,0-1.7.1-3.3.4-5,.3-1.9.9-3.4,1.7-4.5,1.2-1.3,2.4-1.7,3.6-1.3,1.2.4,2.3,1.3,3.1,2.7.8,1.4,1.2,2.8,1.1,4.3,0,.3-.1.7-.3.9-.2.3-.5.4-.8.4-1.6.2-3.1.5-4.5,1.1-1.1.4-2.2.9-3.2,1.4-.4.2-.7.4-1.1.6Z"/>
  <path class="st0" d="M501.2,90.5c-.3-.4-1-.6-1.9-.5h-.3c-.4,0-.8,0-1.3.2-.5,0-.8.3-1.1.7,0,.7,0,1.5,0,2.5,0,1.1,0,2.2,0,3.4-.2.7-.4,1.3-.8,1.9-.2.4-.5.9-.8,1.3-1.7,2-3,2.9-4,2.8-1,0-1.7-.9-2.1-2.3-.1-.4-.2-.7-.2-1.1-.2-1.1-.3-2.4-.2-3.8,0-1.9.3-3.6.7-5.1,0-.5,0-.9-.5-1-.4-.2-1-.2-1.6-.2-.6,0-1.2,0-1.8.2-1.3.3-2.2,1.2-2.6,2.8,0,.1,0,.2,0,.3-.2.6-.3,1.3-.3,2,0,.9,0,1.9.1,2.9.1.8.3,1.5.5,2.2.4,1.1.9,2.1,1.6,3,.2.3.4.5.6.8,1,1.1,2.3,1.7,3.9,1.9h.2c1.1.2,2.2.2,3.5,0,1.3-.2,2.5-1,3.7-2.4,0,.6,0,1.2-.1,1.8-3,1.2-7,3.5-12.1,6.9s-9,6.2-11.9,8.6c-7.2,6.2-12.2,11.7-15,16.4-2.8,4.8-3.9,8.7-3.4,11.8.5,3.1,2.2,5.4,5,6.7,2.8,1.3,6.3,1.7,10.3,1.2s8.1-2.2,12.3-4.8c4.2-2.6,7.9-6.4,11.1-11.2,3.2-4.8,5.5-10.9,6.7-18.1.2-1.2.4-3.5.7-6.6.3-3.2.6-6.6.8-10.3,0-1.1.1-2.2.2-3.3,0-1.4.1-2.7.2-3.9,0-.9,0-1.8,0-2.6,0-2.8,0-4.4-.4-4.9ZM496.4,109.7h0c-.2,7-1.3,13.1-3.4,18.4-2.1,5.3-4.7,9.8-7.8,13.4-3.1,3.6-6.4,6.4-9.8,8.4-3.4,1.9-6.5,3-9.4,3.2-2.9.2-5.1-.5-6.6-2.1-1.1-1.3-1.5-2.9-1.2-4.8.3-1.9,1.1-3.8,2.3-5.9,1.2-2.1,2.7-4.1,4.3-6.1,1.6-2,3.2-3.7,4.7-5.2,1.5-1.5,2.6-2.7,3.5-3.5,4-3.8,8.1-7.2,12.1-10.2,4-3,7.3-5.4,9.8-7,.4-.3.7-.5,1-.7.3-.2.4-.1.5.1,0,.2.1.6,0,1,0,.4,0,.7,0,1Z"/>
  <path class="st0" d="M552.5,75.8c-.1.4-.3.7-.3,1.1s0,.2,0,.3c0,.4,0,.8.1,1.1,0,.3.2.5.5.7.3.1.6.2,1,.1.4,0,.7-.2,1-.5.8-.7,1.3-1.5,1.7-2.6.1-.4,0-.8-.2-1.1-.3-.3-.6-.5-1.1-.5-1.3,0-2.3.4-2.7,1.4h0Z"/>
  <path class="st0" d="M643.6,107.1v-.3c-.7-2.5-3.3-4.4-7.7-5.8-11.1-2.6-22.5-2.9-34.2-.9-4.9.8-9.6,1.8-14,3-4.4,1.1-7.6,1.9-9.6,2.1-2,.2-3-.2-3-1.3s.1-2.6.3-4.1c.2-1.3.3-2.6.3-3.8,0-1.2,0-2.3-.4-3.1-.3-.8-.9-1.3-1.9-1.3s-1.4,0-2,.1c-.5.1-.9.3-1.3.4-.3,0-.5.1-.7.2-1,.2-1.5,0-1.5-.6,0-.6.3-1.3.7-2.2.5-1,.7-2,.7-2.9s-.6-1.4-2-1.6c-1,0-1.8.1-2.6.7-.7.6-1.2,1.5-1.3,2.6-.3,1.6-.3,3,0,4,.2.9.8,1.5,1.9,1.9-.5,1.2-1.8,2.8-3.6,4.6-1.8,1.8-3.4,2.4-4.9,1.9-1.5-.5-2.2-2.4-2.1-5.5,0-.7,0-1.4,0-2.1s0-1.8.1-2.7c0-.3,0-.6,0-.9,0-.6,0-1.2,0-1.8-.2-1.9-1.3-2.6-3.3-2.1-.7.2-1.2.9-1.6,2.1-.3,1.2-.5,2.4-.6,3.9,0,1.4-.1,2.7-.1,3.8v2.4c-.5.9-1.1,2.1-2,3.2-1.1,1.6-2.4,3.1-3.7,4.4-1.4,1.3-2.5,2.2-3.3,2.4-.9.3-1.5.4-1.8.4-.9,0-1.8-.4-2.4-1.2-1.1-1.4-1.9-3.3-2.5-5.7-.6-2.4-.9-4.9-1.1-7.3,6.3-4.7,11.2-10,14.7-15.9,3.5-5.9,5.7-11.3,6.6-16.3.9-4.9,1.4-9.1,1.4-12.6s-.3-4.9-.7-8.5c-.5-3.6-1.7-7.1-3.6-10.4-1.9-3.3-4.2-5.1-6.7-5.5h-.6c-2.6,0-4.8,1.4-6.7,4.2-1.9,2.8-3.6,6.7-4.9,11.6-1.3,4.9-2.4,10.3-3.1,16.1-.7,5.9-1.2,10.9-1.4,15.2-.1,4.2-.3,7.5-.3,10s0,5.2.2,7.7c0,.8,0,1.6,0,2.3-2,.9-4.3,1.8-7,2.6-4.6,1.5-11,2.6-19.2,3.6,0,0,0,0,0,0-1.9.2-3.8.4-5.4.6-.2.4-.5.9-.8,1.3-1.7,2-3,2.9-4,2.8-1,0-1.7-.9-2.1-2.3,0-.4-.2-.7-.2-1.1-2.1.1-3.8.2-5.1.2h-.6c.4,1.1.9,2.1,1.6,3,.2.3.4.5.6.8,5.8-.3,11.2-.8,16-1.4,5.9-.7,11.1-1.7,15.6-2.8,4.7-1.2,8.4-2.3,11.2-3.3.1,1.6.4,3,.8,4.2.9,3.7,2.1,6.4,3.8,8.2,1.7,1.8,3.6,2.7,5.8,2.7s1,0,1.5-.1c1.8-.4,3.4-1.2,4.8-2.5,1.8-1.6,3.2-3.4,4.2-5.4.5-.9.9-1.8,1.3-2.6.3.7.7,1.4,1.3,2,1.8,1.8,3.8,2.6,5.8,2.1,2-.5,3.8-1.5,5.5-3.2,1.6-1.7,2.7-3.2,3.4-4.6.4-.8.6-1.4.7-2,1,.1,1.9.1,2.9,0h.6c.3,0,.5,0,.7.2.1.2.3.5.3.8-.1.9-.3,1.9-.4,2.9-.4,2.4-.5,4.5-.5,6.5.3,2.3,1.1,3.7,2.6,4.2,1.4.5,3.4.2,5.8-.7,4-1,9.2-2,15.6-3.1,9.6-1.6,18.2-2.1,25.9-1.4,7.7.6,14.4,2.4,20.2,5.1.9.4,1.6.8,2.1,1.3.5.5.9.7,1.4.6.5,0,.3-1.3-.4-3.8ZM532.7,87.2c0-1.1,0-3.1,0-5.6h.1c0-2.6.3-6.2.5-10.8.3-4.6.7-9.3,1.3-14.2.5-4.9,1.3-9.5,2.1-13.8.8-4.3,1.9-7.9,3.1-10.7,1.2-2.8,2.6-4.4,4.2-4.9h.3c1.2,0,2.4,1.2,3.7,3.7,1.3,2.4,2.2,5.3,2.6,8.6.5,3.3.7,6.1.7,8.3s-.3,6.2-.9,10.5c-.6,4.3-2.3,9.4-5.1,15.1-2.8,5.8-7.1,11.3-12.7,16.5,0-.7,0-1.6,0-2.8ZM460.7,98.2c-.2,0-.4,0-.7,0h-.5c-.7,0-1.1.5-1.1,1.5v1.1c0,.7.7,1.3,2.1,2.1,1.4.7,3.4,1.1,6.1,1.1.9,0,1.8,0,2.7,0,.8-.5,1.5-1.2,2.2-2.1.6-.8,1.1-1.6,1.5-2.4-4.2-.2-8.4-.6-12.4-1.2ZM467.1,100.9c-.5.5-1.2.9-1.9,1.3-.7.3-1.3.5-1.7.4-.4,0-.6-.3-.4-.9.1-.3.3-.6.6-.9.6-.5,1.2-1,1.8-1.3.6-.3,1.4-.5,2.1-.5,0,0,0,0,.2,0,0,0,0,0,0,.1,0,.6-.2,1.1-.7,1.6Z"/>
</svg>
